<svg xmlns="http://www.w3.org/2000/svg" xmlns:xlink="http://www.w3.org/1999/xlink" width="500" zoomAndPan="magnify" viewBox="0 0 375 374.999991" height="500" preserveAspectRatio="xMidYMid meet" version="1.0"><defs><g/><clipPath id="id1"><path d="M 22.25 27.839844 L 341.75 27.839844 L 341.75 347.339844 L 22.25 347.339844 Z M 22.25 27.839844 " clip-rule="nonzero"/></clipPath></defs><rect x="-37.5" width="450" fill="#ffffff" y="-37.499999" height="449.999989" fill-opacity="1"/><rect x="-37.5" width="450" fill="#ffffff" y="-37.499999" height="449.999989" fill-opacity="1"/><rect x="-37.5" width="450" fill="#ffffff" y="-37.499999" height="449.999989" fill-opacity="1"/><g clip-path="url(#id1)"><path fill="#edead6" d="M 22.25 187.589844 L 182 347.339844 L 341.75 187.589844 L 182 27.839844 Z M 329.917969 188.449219 L 182 336.363281 L 33.140625 187.589844 L 182 38.730469 L 330.859375 187.589844 Z M 329.917969 188.449219 " fill-opacity="1" fill-rule="nonzero"/></g><path fill="#edead6" d="M 172.582031 74.886719 L 181.980469 65.488281 L 191.378906 74.886719 L 181.980469 84.285156 Z M 172.582031 74.886719 " fill-opacity="1" fill-rule="nonzero"/><path fill="#edead6" d="M 172.570312 300.324219 L 181.964844 290.925781 L 191.363281 300.324219 L 181.964844 309.722656 Z M 172.570312 300.324219 " fill-opacity="1" fill-rule="nonzero"/><g fill="#edead6" fill-opacity="1"><g transform="translate(140.506377, 230.412008)"><g><path d="M 72.078125 -93.953125 C 73.953125 -93.953125 75.492188 -93.390625 76.703125 -92.265625 C 77.910156 -91.148438 78.515625 -89.65625 78.515625 -87.78125 C 78.515625 -85.894531 77.910156 -84.414062 76.703125 -83.34375 C 75.492188 -82.269531 73.953125 -81.734375 72.078125 -81.734375 L 48.1875 -81.734375 L 48.1875 -6.4375 C 48.1875 -4.65625 47.535156 -3.132812 46.234375 -1.875 C 44.941406 -0.625 43.3125 0 41.34375 0 C 39.375 0 37.738281 -0.625 36.4375 -1.875 C 35.144531 -3.132812 34.5 -4.65625 34.5 -6.4375 L 34.5 -81.734375 L 10.734375 -81.734375 C 8.859375 -81.734375 7.316406 -82.289062 6.109375 -83.40625 C 4.898438 -84.53125 4.296875 -86.03125 4.296875 -87.90625 C 4.296875 -89.695312 4.898438 -91.148438 6.109375 -92.265625 C 7.316406 -93.390625 8.859375 -93.953125 10.734375 -93.953125 Z M 72.078125 -93.953125 "/></g></g></g><g fill="#4e5b60" fill-opacity="1"><g transform="translate(71.617913, 187.107537)"><g><path d="M 8.828125 -20.984375 C 11.203125 -20.984375 13.0625 -20.382812 14.40625 -19.1875 C 15.757812 -18 16.4375 -16.347656 16.4375 -14.234375 C 16.4375 -13.023438 16.191406 -11.894531 15.703125 -10.84375 C 15.222656 -9.800781 14.453125 -8.945312 13.390625 -8.28125 C 12.328125 -7.625 10.957031 -7.296875 9.28125 -7.296875 L 6.25 -7.296875 L 6.25 0 L 2.890625 0 L 2.890625 -20.984375 Z M 9.28125 -10.515625 C 10.207031 -10.515625 10.953125 -10.710938 11.515625 -11.109375 C 12.085938 -11.503906 12.492188 -11.984375 12.734375 -12.546875 C 12.972656 -13.117188 13.09375 -13.664062 13.09375 -14.1875 C 13.09375 -15.070312 12.804688 -15.890625 12.234375 -16.640625 C 11.671875 -17.390625 10.71875 -17.765625 9.375 -17.765625 L 6.25 -17.765625 L 6.25 -10.515625 Z M 9.28125 -10.515625 "/></g></g></g><g fill="#4e5b60" fill-opacity="1"><g transform="translate(93.842451, 187.107537)"><g><path d="M 19.953125 0 L 16.578125 0 L 16.578125 -8.9375 L 6.25 -8.9375 L 6.25 0 L 2.890625 0 L 2.890625 -20.984375 L 6.25 -20.984375 L 6.25 -12.140625 L 16.578125 -12.140625 L 16.578125 -20.984375 L 19.953125 -20.984375 Z M 19.953125 0 "/></g></g></g><g fill="#4e5b60" fill-opacity="1"><g transform="translate(121.284134, 187.107537)"><g><path d="M 13.671875 -4.921875 L 6.03125 -4.921875 L 4 0 L 0.6875 0 L 9.96875 -21.859375 L 10.171875 -21.859375 L 19.453125 0 L 15.59375 0 Z M 12.546875 -7.8125 L 9.921875 -14.4375 L 7.203125 -7.8125 Z M 12.546875 -7.8125 "/></g></g></g><g fill="#4e5b60" fill-opacity="1"><g transform="translate(146.045182, 187.107537)"><g><path d="M 21.421875 -20.984375 L 21.421875 0.75 L 21.328125 0.75 L 6.203125 -13.921875 L 6.28125 0 L 2.890625 0 L 2.890625 -21.703125 L 3.0625 -21.703125 L 18.140625 -6.859375 L 18.078125 -20.984375 Z M 21.421875 -20.984375 "/></g></g></g><g fill="#4e5b60" fill-opacity="1"><g transform="translate(174.985713, 187.107537)"><g/></g></g><g fill="#4e5b60" fill-opacity="1"><g transform="translate(188.822476, 187.107537)"><g><path d="M 15.421875 -20.984375 L 15.421875 -17.765625 L 10 -17.765625 L 10 0 L 6.65625 0 L 6.65625 -17.765625 L 1.390625 -17.765625 L 1.390625 -20.984375 Z M 15.421875 -20.984375 "/></g></g></g><g fill="#4e5b60" fill-opacity="1"><g transform="translate(210.239946, 187.107537)"><g><path d="M 19.953125 0 L 16.578125 0 L 16.578125 -8.9375 L 6.25 -8.9375 L 6.25 0 L 2.890625 0 L 2.890625 -20.984375 L 6.25 -20.984375 L 6.25 -12.140625 L 16.578125 -12.140625 L 16.578125 -20.984375 L 19.953125 -20.984375 Z M 19.953125 0 "/></g></g></g><g fill="#4e5b60" fill-opacity="1"><g transform="translate(237.681634, 187.107537)"><g><path d="M 6.25 -20.984375 L 6.25 0 L 2.890625 0 L 2.890625 -20.984375 Z M 2.6875 3.109375 C 2.6875 2.628906 2.875 2.222656 3.25 1.890625 C 3.632812 1.554688 4.070312 1.390625 4.5625 1.390625 C 5.019531 1.390625 5.4375 1.554688 5.8125 1.890625 C 6.1875 2.222656 6.375 2.628906 6.375 3.109375 C 6.375 3.585938 6.1875 3.988281 5.8125 4.3125 C 5.4375 4.644531 5.019531 4.8125 4.5625 4.8125 C 4.070312 4.8125 3.632812 4.644531 3.25 4.3125 C 2.875 3.988281 2.6875 3.585938 2.6875 3.109375 Z M 2.6875 3.109375 "/></g></g></g><g fill="#4e5b60" fill-opacity="1"><g transform="translate(251.431912, 187.107537)"><g><path d="M 21.421875 -20.984375 L 21.421875 0.75 L 21.328125 0.75 L 6.203125 -13.921875 L 6.28125 0 L 2.890625 0 L 2.890625 -21.703125 L 3.0625 -21.703125 L 18.140625 -6.859375 L 18.078125 -20.984375 Z M 21.421875 -20.984375 "/></g></g></g><g fill="#4e5b60" fill-opacity="1"><g transform="translate(280.372438, 187.107537)"><g><path d="M 19.953125 0 L 16.578125 0 L 16.578125 -8.9375 L 6.25 -8.9375 L 6.25 0 L 2.890625 0 L 2.890625 -20.984375 L 6.25 -20.984375 L 6.25 -12.140625 L 16.578125 -12.140625 L 16.578125 -20.984375 L 19.953125 -20.984375 Z M 19.953125 0 "/></g></g></g><g fill="#4e5b60" fill-opacity="1"><g transform="translate(78.444964, 284.186973)"><g><path d="M 3.203125 -7.625 C 4.078125 -7.625 4.753906 -7.40625 5.234375 -6.96875 C 5.722656 -6.539062 5.96875 -5.941406 5.96875 -5.171875 C 5.96875 -4.734375 5.878906 -4.320312 5.703125 -3.9375 C 5.535156 -3.5625 5.253906 -3.253906 4.859375 -3.015625 C 4.472656 -2.773438 3.976562 -2.65625 3.375 -2.65625 L 2.28125 -2.65625 L 2.28125 0 L 1.046875 0 L 1.046875 -7.625 Z M 3.375 -3.828125 C 3.707031 -3.828125 3.976562 -3.894531 4.1875 -4.03125 C 4.394531 -4.175781 4.539062 -4.351562 4.625 -4.5625 C 4.71875 -4.769531 4.765625 -4.96875 4.765625 -5.15625 C 4.765625 -5.476562 4.660156 -5.773438 4.453125 -6.046875 C 4.242188 -6.316406 3.894531 -6.453125 3.40625 -6.453125 L 2.28125 -6.453125 L 2.28125 -3.828125 Z M 3.375 -3.828125 "/></g></g></g><g fill="#4e5b60" fill-opacity="1"><g transform="translate(89.463826, 284.186973)"><g><path d="M 7.25 0 L 6.03125 0 L 6.03125 -3.25 L 2.28125 -3.25 L 2.28125 0 L 1.046875 0 L 1.046875 -7.625 L 2.28125 -7.625 L 2.28125 -4.40625 L 6.03125 -4.40625 L 6.03125 -7.625 L 7.25 -7.625 Z M 7.25 0 "/></g></g></g><g fill="#4e5b60" fill-opacity="1"><g transform="translate(102.3797, 284.186973)"><g><path d="M 4.96875 -1.796875 L 2.1875 -1.796875 L 1.453125 0 L 0.25 0 L 3.625 -7.953125 L 3.703125 -7.953125 L 7.078125 0 L 5.671875 0 Z M 4.5625 -2.84375 L 3.609375 -5.25 L 2.625 -2.84375 Z M 4.5625 -2.84375 "/></g></g></g><g fill="#4e5b60" fill-opacity="1"><g transform="translate(114.320864, 284.186973)"><g><path d="M 7.796875 -7.625 L 7.796875 0.265625 L 7.765625 0.265625 L 2.25 -5.0625 L 2.28125 0 L 1.046875 0 L 1.046875 -7.890625 L 1.109375 -7.890625 L 6.59375 -2.5 L 6.578125 -7.625 Z M 7.796875 -7.625 "/></g></g></g><g fill="#4e5b60" fill-opacity="1"><g transform="translate(127.781741, 284.186973)"><g/></g></g><g fill="#4e5b60" fill-opacity="1"><g transform="translate(135.750699, 284.186973)"><g><path d="M 5.609375 -7.625 L 5.609375 -6.453125 L 3.640625 -6.453125 L 3.640625 0 L 2.421875 0 L 2.421875 -6.453125 L 0.5 -6.453125 L 0.5 -7.625 Z M 5.609375 -7.625 "/></g></g></g><g fill="#4e5b60" fill-opacity="1"><g transform="translate(146.476096, 284.186973)"><g><path d="M 7.25 0 L 6.03125 0 L 6.03125 -3.25 L 2.28125 -3.25 L 2.28125 0 L 1.046875 0 L 1.046875 -7.625 L 2.28125 -7.625 L 2.28125 -4.40625 L 6.03125 -4.40625 L 6.03125 -7.625 L 7.25 -7.625 Z M 7.25 0 "/></g></g></g><g fill="#4e5b60" fill-opacity="1"><g transform="translate(159.391972, 284.186973)"><g><path d="M 2.28125 -7.625 L 2.28125 0 L 1.046875 0 L 1.046875 -7.625 Z M 0.984375 1.125 C 0.984375 0.957031 1.050781 0.8125 1.1875 0.6875 C 1.320312 0.5625 1.476562 0.5 1.65625 0.5 C 1.820312 0.5 1.972656 0.5625 2.109375 0.6875 C 2.242188 0.8125 2.3125 0.957031 2.3125 1.125 C 2.3125 1.300781 2.242188 1.445312 2.109375 1.5625 C 1.972656 1.6875 1.820312 1.75 1.65625 1.75 C 1.476562 1.75 1.320312 1.6875 1.1875 1.5625 C 1.050781 1.445312 0.984375 1.300781 0.984375 1.125 Z M 0.984375 1.125 "/></g></g></g><g fill="#4e5b60" fill-opacity="1"><g transform="translate(167.329484, 284.186973)"><g><path d="M 7.796875 -7.625 L 7.796875 0.265625 L 7.765625 0.265625 L 2.25 -5.0625 L 2.28125 0 L 1.046875 0 L 1.046875 -7.890625 L 1.109375 -7.890625 L 6.59375 -2.5 L 6.578125 -7.625 Z M 7.796875 -7.625 "/></g></g></g><g fill="#4e5b60" fill-opacity="1"><g transform="translate(180.790356, 284.186973)"><g><path d="M 7.25 0 L 6.03125 0 L 6.03125 -3.25 L 2.28125 -3.25 L 2.28125 0 L 1.046875 0 L 1.046875 -7.625 L 2.28125 -7.625 L 2.28125 -4.40625 L 6.03125 -4.40625 L 6.03125 -7.625 L 7.25 -7.625 Z M 7.25 0 "/></g></g></g><g fill="#4e5b60" fill-opacity="1"><g transform="translate(193.706231, 284.186973)"><g/></g></g><g fill="#4e5b60" fill-opacity="1"><g transform="translate(201.675189, 284.186973)"><g><path d="M 6.703125 -0.59375 C 6.484375 -0.4375 6.175781 -0.285156 5.78125 -0.140625 C 5.382812 0.00390625 4.953125 0.078125 4.484375 0.078125 C 3.691406 0.078125 3 -0.09375 2.40625 -0.4375 C 1.820312 -0.78125 1.367188 -1.242188 1.046875 -1.828125 C 0.734375 -2.410156 0.578125 -3.050781 0.578125 -3.75 C 0.578125 -4.507812 0.734375 -5.191406 1.046875 -5.796875 C 1.367188 -6.398438 1.8125 -6.867188 2.375 -7.203125 C 2.945312 -7.546875 3.597656 -7.71875 4.328125 -7.71875 C 4.773438 -7.71875 5.1875 -7.65625 5.5625 -7.53125 C 5.945312 -7.414062 6.285156 -7.269531 6.578125 -7.09375 L 6.109375 -5.9375 C 5.535156 -6.34375 4.957031 -6.546875 4.375 -6.546875 C 3.925781 -6.546875 3.503906 -6.421875 3.109375 -6.171875 C 2.722656 -5.929688 2.414062 -5.601562 2.1875 -5.1875 C 1.957031 -4.78125 1.84375 -4.328125 1.84375 -3.828125 C 1.84375 -3.304688 1.945312 -2.835938 2.15625 -2.421875 C 2.375 -2.003906 2.679688 -1.675781 3.078125 -1.4375 C 3.472656 -1.207031 3.929688 -1.09375 4.453125 -1.09375 C 4.816406 -1.09375 5.144531 -1.144531 5.4375 -1.25 C 5.738281 -1.363281 5.992188 -1.507812 6.203125 -1.6875 Z M 6.703125 -0.59375 "/></g></g></g><g fill="#4e5b60" fill-opacity="1"><g transform="translate(213.574438, 284.186973)"><g><path d="M 0.578125 -3.8125 C 0.578125 -4.507812 0.75 -5.15625 1.09375 -5.75 C 1.445312 -6.34375 1.921875 -6.816406 2.515625 -7.171875 C 3.117188 -7.535156 3.773438 -7.71875 4.484375 -7.71875 C 5.179688 -7.71875 5.828125 -7.535156 6.421875 -7.171875 C 7.015625 -6.816406 7.488281 -6.335938 7.84375 -5.734375 C 8.207031 -5.140625 8.390625 -4.5 8.390625 -3.8125 C 8.390625 -3.101562 8.210938 -2.453125 7.859375 -1.859375 C 7.503906 -1.265625 7.023438 -0.789062 6.421875 -0.4375 C 5.828125 -0.09375 5.179688 0.078125 4.484375 0.078125 C 3.773438 0.078125 3.117188 -0.09375 2.515625 -0.4375 C 1.921875 -0.78125 1.445312 -1.25 1.09375 -1.84375 C 0.75 -2.4375 0.578125 -3.09375 0.578125 -3.8125 Z M 1.828125 -3.8125 C 1.828125 -3.3125 1.945312 -2.851562 2.1875 -2.4375 C 2.425781 -2.03125 2.75 -1.703125 3.15625 -1.453125 C 3.570312 -1.210938 4.023438 -1.09375 4.515625 -1.09375 C 4.992188 -1.09375 5.429688 -1.210938 5.828125 -1.453125 C 6.222656 -1.691406 6.535156 -2.019531 6.765625 -2.4375 C 7.003906 -2.851562 7.125 -3.3125 7.125 -3.8125 C 7.125 -4.300781 7.003906 -4.753906 6.765625 -5.171875 C 6.535156 -5.597656 6.21875 -5.929688 5.8125 -6.171875 C 5.40625 -6.421875 4.960938 -6.546875 4.484375 -6.546875 C 3.992188 -6.546875 3.546875 -6.421875 3.140625 -6.171875 C 2.734375 -5.929688 2.410156 -5.597656 2.171875 -5.171875 C 1.941406 -4.753906 1.828125 -4.300781 1.828125 -3.8125 Z M 1.828125 -3.8125 "/></g></g></g><g fill="#4e5b60" fill-opacity="1"><g transform="translate(227.150608, 284.186973)"><g><path d="M 8.75 -7.90625 L 8.75 0 L 7.53125 0 L 7.53125 -4.40625 L 4.859375 -0.625 L 4.84375 -0.625 L 2.234375 -4.234375 L 2.234375 0 L 1.046875 0 L 1.046875 -7.90625 L 1.0625 -7.90625 L 4.859375 -2.515625 L 8.734375 -7.90625 Z M 8.75 -7.90625 "/></g></g></g><g fill="#4e5b60" fill-opacity="1"><g transform="translate(241.565235, 284.186973)"><g><path d="M 3.203125 -7.625 C 4.078125 -7.625 4.753906 -7.40625 5.234375 -6.96875 C 5.722656 -6.539062 5.96875 -5.941406 5.96875 -5.171875 C 5.96875 -4.734375 5.878906 -4.320312 5.703125 -3.9375 C 5.535156 -3.5625 5.253906 -3.253906 4.859375 -3.015625 C 4.472656 -2.773438 3.976562 -2.65625 3.375 -2.65625 L 2.28125 -2.65625 L 2.28125 0 L 1.046875 0 L 1.046875 -7.625 Z M 3.375 -3.828125 C 3.707031 -3.828125 3.976562 -3.894531 4.1875 -4.03125 C 4.394531 -4.175781 4.539062 -4.351562 4.625 -4.5625 C 4.71875 -4.769531 4.765625 -4.96875 4.765625 -5.15625 C 4.765625 -5.476562 4.660156 -5.773438 4.453125 -6.046875 C 4.242188 -6.316406 3.894531 -6.453125 3.40625 -6.453125 L 2.28125 -6.453125 L 2.28125 -3.828125 Z M 3.375 -3.828125 "/></g></g></g><g fill="#4e5b60" fill-opacity="1"><g transform="translate(252.584098, 284.186973)"><g><path d="M 4.96875 -1.796875 L 2.1875 -1.796875 L 1.453125 0 L 0.25 0 L 3.625 -7.953125 L 3.703125 -7.953125 L 7.078125 0 L 5.671875 0 Z M 4.5625 -2.84375 L 3.609375 -5.25 L 2.625 -2.84375 Z M 4.5625 -2.84375 "/></g></g></g><g fill="#4e5b60" fill-opacity="1"><g transform="translate(264.525265, 284.186973)"><g><path d="M 7.796875 -7.625 L 7.796875 0.265625 L 7.765625 0.265625 L 2.25 -5.0625 L 2.28125 0 L 1.046875 0 L 1.046875 -7.890625 L 1.109375 -7.890625 L 6.59375 -2.5 L 6.578125 -7.625 Z M 7.796875 -7.625 "/></g></g></g><g fill="#4e5b60" fill-opacity="1"><g transform="translate(277.986142, 284.186973)"><g><path d="M 7.140625 -7.625 L 4.28125 -2.46875 L 4.28125 0 L 3.0625 0 L 3.0625 -2.46875 L 0.234375 -7.625 L 1.734375 -7.625 L 3.71875 -3.875 L 5.640625 -7.625 Z M 7.140625 -7.625 "/></g></g></g></svg>